<?xml version="1.0" ?>
<!DOCTYPE score-partwise
  PUBLIC '-//Recordare//DTD MusicXML 3.0 Partwise//EN'
  'http://www.musicxml.org/dtds/partwise.dtd'>
<score-partwise>
  <work>
    <work-title>ScoreScan 1.0 SheetMusic MusicXML</work-title>
  </work>
  <identification>
    <encoding>
      <software>Score Scanner 1.0</software>
      <encoding-date>2018-01-16</encoding-date>
    </encoding>
  </identification>
  <defaults>
    <scaling>
      <millimeters>7.05556</millimeters>
      <tenths>40</tenths>
    </scaling>
    <page-layout>
      <page-height>1683.78</page-height>
      <page-width>1190.55</page-width>
      <page-margins type="even">
        <left-margin>56.6929</left-margin>
        <right-margin>56.6929</right-margin>
        <top-margin>56.6929</top-margin>
        <bottom-margin>113.386</bottom-margin>
      </page-margins>
      <page-margins type="odd">
        <left-margin>56.6929</left-margin>
        <right-margin>56.6929</right-margin>
        <top-margin>56.6929</top-margin>
        <bottom-margin>113.386</bottom-margin>
      </page-margins>
    </page-layout>
  </defaults>
  <part-list>
    <score-part id="P1">
      <part-name>Music</part-name>
    </score-part>
  </part-list>
  <part id="P1">
    <measure number="1">
      <attributes>
        <clef>
          <sign>G</sign>
          <line>2</line>
        </clef>
      </attributes>
      <attributes>
        <time>
          <beats>4</beats>
          <beat-type>4</beat-type>
        </time>
      </attributes>
      <note>
        <pitch>
          <step>E</step>
          <alter>0.0</alter>
          <octave>4</octave>
        </pitch>
        <duration>2.0</duration>
        <type>half</type>
      </note>
      <note>
        <pitch>
          <step>E</step>
          <alter>0.0</alter>
          <octave>4</octave>
        </pitch>
        <duration>2.0</duration>
        <type>half</type>
      </note>
    </measure>
    <measure number="2">
      <note>
        <pitch>
          <step>E</step>
          <alter>0.0</alter>
          <octave>4</octave>
        </pitch>
        <duration>2.0</duration>
        <type>half</type>
      </note>
      <note>
        <pitch>
          <step>G</step>
          <alter>0.0</alter>
          <octave>4</octave>
        </pitch>
        <duration>2.0</duration>
        <type>half</type>
      </note>
    </measure>
    <measure number="3">
      <note>
        <pitch>
          <step>A</step>
          <alter>0.0</alter>
          <octave>4</octave>
        </pitch>
        <duration>2.0</duration>
        <type>half</type>
      </note>
      <note>
        <pitch>
          <step>A</step>
          <alter>0.0</alter>
          <octave>4</octave>
        </pitch>
        <duration>2.0</duration>
        <type>half</type>
      </note>
    </measure>
    <measure number="4">
      <note>
        <pitch>
          <step>G</step>
          <alter>0.0</alter>
          <octave>4</octave>
        </pitch>
        <duration>2.0</duration>
        <type>half</type>
      </note>
      <note>
        <pitch>
          <step>F</step>
          <alter>0.0</alter>
          <octave>4</octave>
        </pitch>
        <duration>2.0</duration>
        <type>half</type>
      </note>
    </measure>
    <measure number="5">
      <note>
        <pitch>
          <step>F</step>
          <alter>0.0</alter>
          <octave>4</octave>
        </pitch>
        <duration>2.0</duration>
        <type>half</type>
      </note>
      <note>
        <pitch>
          <step>A</step>
          <alter>0.0</alter>
          <octave>4</octave>
        </pitch>
        <duration>2.0</duration>
        <type>half</type>
      </note>
    </measure>
    <measure number="6">
      <note>
        <pitch>
          <step>B</step>
          <alter>0.0</alter>
          <octave>4</octave>
        </pitch>
        <duration>2.0</duration>
        <type>half</type>
      </note>
      <note>
        <pitch>
          <step>C</step>
          <alter>0.0</alter>
          <octave>5</octave>
        </pitch>
        <duration>2.0</duration>
        <type>half</type>
      </note>
    </measure>
    <measure number="7">
      <note>
        <pitch>
          <step>C</step>
          <alter>0.0</alter>
          <octave>5</octave>
        </pitch>
        <duration>1.0</duration>
        <type>quarter</type>
      </note>
      <note>
        <pitch>
          <step>A</step>
          <alter>0.0</alter>
          <octave>4</octave>
        </pitch>
        <duration>2.0</duration>
        <type>half</type>
      </note>
      <note>
        <rest/>
        <duration>1.0</duration>
        <type>quarter</type>
      </note>
    </measure>
    <measure number="8">
      <note>
        <pitch>
          <step>G</step>
          <alter>0.0</alter>
          <octave>4</octave>
        </pitch>
        <duration>2.0</duration>
        <type>half</type>
      </note>
      <note>
        <pitch>
          <step>G</step>
          <alter>0.0</alter>
          <octave>4</octave>
        </pitch>
        <duration>2.0</duration>
        <type>half</type>
      </note>
    </measure>
    <measure number="9">
      <note>
        <pitch>
          <step>G</step>
          <alter>0.0</alter>
          <octave>4</octave>
        </pitch>
        <duration>2.0</duration>
        <type>half</type>
      </note>
      <note>
        <pitch>
          <step>A</step>
          <alter>0.0</alter>
          <octave>4</octave>
        </pitch>
        <duration>2.0</duration>
        <type>half</type>
      </note>
    </measure>
    <measure number="10">
      <note>
        <pitch>
          <step>C</step>
          <alter>0.0</alter>
          <octave>5</octave>
        </pitch>
        <duration>2.0</duration>
        <type>half</type>
      </note>
      <note>
        <rest/>
        <duration>2.0</duration>
        <type>half</type>
      </note>
    </measure>
    <measure number="11">
      <note>
        <pitch>
          <step>B</step>
          <alter>0.0</alter>
          <octave>4</octave>
        </pitch>
        <duration>2.0</duration>
        <type>half</type>
      </note>
      <note>
        <rest/>
        <duration>2.0</duration>
        <type>half</type>
      </note>
    </measure>
    <measure number="12">
      <note>
        <pitch>
          <step>G</step>
          <alter>0.0</alter>
          <octave>4</octave>
        </pitch>
        <duration>2.0</duration>
        <type>half</type>
      </note>
      <note>
        <pitch>
          <step>F</step>
          <alter>0.0</alter>
          <octave>4</octave>
        </pitch>
        <duration>1.0</duration>
        <type>quarter</type>
      </note>
      <note>
        <rest/>
        <duration>1.0</duration>
        <type>quarter</type>
      </note>
    </measure>
    <measure number="13">
      <note>
        <pitch>
          <step>F</step>
          <alter>0.0</alter>
          <octave>4</octave>
        </pitch>
        <duration>1.0</duration>
        <type>quarter</type>
      </note>
      <note>
        <pitch>
          <step>G</step>
          <alter>0.0</alter>
          <octave>4</octave>
        </pitch>
        <duration>2.0</duration>
        <type>half</type>
      </note>
      <note>
        <rest/>
        <duration>1.0</duration>
        <type>quarter</type>
      </note>
    </measure>
    <measure number="14">
      <note>
        <pitch>
          <step>A</step>
          <alter>0.0</alter>
          <octave>4</octave>
        </pitch>
        <duration>2.0</duration>
        <type>half</type>
      </note>
      <note>
        <pitch>
          <step>B</step>
          <alter>0.0</alter>
          <octave>4</octave>
        </pitch>
        <duration>2.0</duration>
        <type>half</type>
      </note>
    </measure>
    <measure number="15">
      <note>
        <pitch>
          <step>A</step>
          <alter>0.0</alter>
          <octave>4</octave>
        </pitch>
        <duration>2.0</duration>
        <type>half</type>
      </note>
      <note>
        <pitch>
          <step>B</step>
          <alter>0.0</alter>
          <octave>4</octave>
        </pitch>
        <duration>1.0</duration>
        <type>quarter</type>
      </note>
      <note>
        <pitch>
          <step>G</step>
          <alter>0.0</alter>
          <octave>4</octave>
        </pitch>
        <duration>1.0</duration>
        <type>quarter</type>
      </note>
    </measure>
    <measure number="16">
      <note>
        <pitch>
          <step>F</step>
          <alter>0.0</alter>
          <octave>4</octave>
        </pitch>
        <duration>2.0</duration>
        <type>half</type>
      </note>
      <note>
        <pitch>
          <step>B</step>
          <alter>0.0</alter>
          <octave>4</octave>
        </pitch>
        <duration>1.0</duration>
        <type>quarter</type>
      </note>
      <note>
        <pitch>
          <step>G</step>
          <alter>0.0</alter>
          <octave>4</octave>
        </pitch>
        <duration>1.0</duration>
        <type>quarter</type>
      </note>
    </measure>
    <measure number="17">
      <note>
        <pitch>
          <step>A</step>
          <alter>0.0</alter>
          <octave>4</octave>
        </pitch>
        <duration>2.0</duration>
        <type>half</type>
      </note>
      <note>
        <pitch>
          <step>B</step>
          <alter>0.0</alter>
          <octave>4</octave>
        </pitch>
        <duration>2.0</duration>
        <type>half</type>
      </note>
    </measure>
    <measure number="18">
      <note>
        <pitch>
          <step>B</step>
          <alter>0.0</alter>
          <octave>4</octave>
        </pitch>
        <duration>2.0</duration>
        <type>half</type>
      </note>
      <note>
        <pitch>
          <step>C</step>
          <alter>0.0</alter>
          <octave>5</octave>
        </pitch>
        <duration>2.0</duration>
        <type>half</type>
      </note>
    </measure>
    <measure number="19">
      <note>
        <pitch>
          <step>B</step>
          <alter>0.0</alter>
          <octave>4</octave>
        </pitch>
        <duration>2.0</duration>
        <type>half</type>
      </note>
      <note>
        <pitch>
          <step>A</step>
          <alter>0.0</alter>
          <octave>4</octave>
        </pitch>
        <duration>2.0</duration>
        <type>half</type>
      </note>
    </measure>
    <measure number="20">
      <note>
        <pitch>
          <step>A</step>
          <alter>0.0</alter>
          <octave>4</octave>
        </pitch>
        <duration>2.0</duration>
        <type>half</type>
      </note>
      <note>
        <pitch>
          <step>A</step>
          <alter>0.0</alter>
          <octave>4</octave>
        </pitch>
        <duration>2.0</duration>
        <type>half</type>
      </note>
    </measure>
    <measure number="21">
      <note>
        <pitch>
          <step>B</step>
          <alter>0.0</alter>
          <octave>4</octave>
        </pitch>
        <duration>2.0</duration>
        <type>half</type>
      </note>
      <note>
        <pitch>
          <step>C</step>
          <alter>0.0</alter>
          <octave>5</octave>
        </pitch>
        <duration>2.0</duration>
        <type>half</type>
      </note>
    </measure>
    <measure number="22">
      <note>
        <pitch>
          <step>B</step>
          <alter>0.0</alter>
          <octave>4</octave>
        </pitch>
        <duration>2.0</duration>
        <type>half</type>
      </note>
      <note>
        <pitch>
          <step>A</step>
          <alter>0.0</alter>
          <octave>4</octave>
        </pitch>
        <duration>2.0</duration>
        <type>half</type>
      </note>
    </measure>
    <measure number="23">
      <note>
        <pitch>
          <step>G</step>
          <alter>0.0</alter>
          <octave>4</octave>
        </pitch>
        <duration>2.0</duration>
        <type>half</type>
      </note>
      <note>
        <pitch>
          <step>G</step>
          <alter>0.0</alter>
          <octave>4</octave>
        </pitch>
        <duration>2.0</duration>
        <type>half</type>
      </note>
    </measure>
    <measure number="24">
      <note>
        <pitch>
          <step>G</step>
          <alter>0.0</alter>
          <octave>4</octave>
        </pitch>
        <duration>2.0</duration>
        <type>half</type>
      </note>
      <note>
        <pitch>
          <step>A</step>
          <alter>0.0</alter>
          <octave>4</octave>
        </pitch>
        <duration>2.0</duration>
        <type>half</type>
      </note>
    </measure>
    <measure number="25">
      <note>
        <pitch>
          <step>C</step>
          <alter>0.0</alter>
          <octave>5</octave>
        </pitch>
        <duration>2.0</duration>
        <type>half</type>
      </note>
      <note>
        <rest/>
        <duration>2.0</duration>
        <type>half</type>
      </note>
    </measure>
    <measure number="26">
      <note>
        <pitch>
          <step>B</step>
          <alter>0.0</alter>
          <octave>4</octave>
        </pitch>
        <duration>2.0</duration>
        <type>half</type>
      </note>
      <note>
        <pitch>
          <step>A</step>
          <alter>0.0</alter>
          <octave>4</octave>
        </pitch>
        <duration>2.0</duration>
        <type>half</type>
      </note>
    </measure>
    <measure number="27">
      <note>
        <pitch>
          <step>A</step>
          <alter>0.0</alter>
          <octave>4</octave>
        </pitch>
        <duration>2.0</duration>
        <type>half</type>
      </note>
      <note>
        <pitch>
          <step>G</step>
          <alter>0.0</alter>
          <octave>4</octave>
        </pitch>
        <duration>2.0</duration>
        <type>half</type>
      </note>
    </measure>
    <measure number="28">
      <note>
        <pitch>
          <step>A</step>
          <alter>0.0</alter>
          <octave>4</octave>
        </pitch>
        <duration>2.0</duration>
        <type>half</type>
      </note>
      <note>
        <pitch>
          <step>B</step>
          <alter>0.0</alter>
          <octave>4</octave>
        </pitch>
        <duration>2.0</duration>
        <type>half</type>
      </note>
    </measure>
    <measure number="29">
      <note>
        <pitch>
          <step>C</step>
          <alter>0.0</alter>
          <octave>5</octave>
        </pitch>
        <duration>2.0</duration>
        <type>half</type>
      </note>
      <note>
        <pitch>
          <step>A</step>
          <alter>0.0</alter>
          <octave>4</octave>
        </pitch>
        <duration>1.0</duration>
        <type>quarter</type>
      </note>
      <note>
        <pitch>
          <step>C</step>
          <alter>0.0</alter>
          <octave>5</octave>
        </pitch>
        <duration>1.0</duration>
        <type>quarter</type>
      </note>
    </measure>
    <measure number="30">
      <note>
        <pitch>
          <step>D</step>
          <alter>0.0</alter>
          <octave>5</octave>
        </pitch>
        <duration>2.0</duration>
        <type>half</type>
      </note>
      <note>
        <pitch>
          <step>G</step>
          <alter>0.0</alter>
          <octave>4</octave>
        </pitch>
        <duration>1.0</duration>
        <type>quarter</type>
      </note>
      <note>
        <pitch>
          <step>D</step>
          <alter>0.0</alter>
          <octave>5</octave>
        </pitch>
        <duration>1.0</duration>
        <type>quarter</type>
      </note>
    </measure>
    <measure number="31">
      <note>
        <pitch>
          <step>D</step>
          <alter>0.0</alter>
          <octave>5</octave>
        </pitch>
        <duration>2.0</duration>
        <type>half</type>
      </note>
      <note>
        <pitch>
          <step>C</step>
          <alter>0.0</alter>
          <octave>5</octave>
        </pitch>
        <duration>2.0</duration>
        <type>half</type>
      </note>
    </measure>
    <measure number="32">
      <note>
        <pitch>
          <step>B</step>
          <alter>0.0</alter>
          <octave>4</octave>
        </pitch>
        <duration>2.0</duration>
        <type>half</type>
      </note>
      <note>
        <pitch>
          <step>B</step>
          <alter>0.0</alter>
          <octave>4</octave>
        </pitch>
        <duration>1.0</duration>
        <type>quarter</type>
      </note>
      <note>
        <pitch>
          <step>B</step>
          <alter>0.0</alter>
          <octave>4</octave>
        </pitch>
        <duration>1.0</duration>
        <type>quarter</type>
      </note>
    </measure>
    <measure number="33">
      <note>
        <pitch>
          <step>A</step>
          <alter>0.0</alter>
          <octave>4</octave>
        </pitch>
        <duration>2.0</duration>
        <type>half</type>
      </note>
      <note>
        <pitch>
          <step>B</step>
          <alter>0.0</alter>
          <octave>4</octave>
        </pitch>
        <duration>2.0</duration>
        <type>half</type>
      </note>
    </measure>
    <measure number="34">
      <note>
        <pitch>
          <step>B</step>
          <alter>0.0</alter>
          <octave>4</octave>
        </pitch>
        <duration>1.0</duration>
        <type>quarter</type>
      </note>
      <note>
        <pitch>
          <step>C</step>
          <alter>0.0</alter>
          <octave>5</octave>
        </pitch>
        <duration>1.0</duration>
        <type>quarter</type>
      </note>
      <note>
        <pitch>
          <step>D</step>
          <alter>0.0</alter>
          <octave>5</octave>
        </pitch>
        <duration>1.0</duration>
        <type>quarter</type>
      </note>
      <note>
        <rest/>
        <duration>1.0</duration>
        <type>quarter</type>
      </note>
    </measure>
    <measure number="35">
      <note>
        <pitch>
          <step>D</step>
          <alter>0.0</alter>
          <octave>5</octave>
        </pitch>
        <duration>1.0</duration>
        <type>quarter</type>
      </note>
      <note>
        <pitch>
          <step>D</step>
          <alter>0.0</alter>
          <octave>5</octave>
        </pitch>
        <duration>2.0</duration>
        <type>half</type>
      </note>
      <note>
        <rest/>
        <duration>1.0</duration>
        <type>quarter</type>
      </note>
    </measure>
    <measure number="36">
      <note>
        <pitch>
          <step>C</step>
          <alter>0.0</alter>
          <octave>5</octave>
        </pitch>
        <duration>2.0</duration>
        <type>half</type>
      </note>
      <note>
        <pitch>
          <step>B</step>
          <alter>0.0</alter>
          <octave>4</octave>
        </pitch>
        <duration>2.0</duration>
        <type>half</type>
      </note>
    </measure>
    <measure number="37">
      <note>
        <pitch>
          <step>A</step>
          <alter>0.0</alter>
          <octave>4</octave>
        </pitch>
        <duration>2.0</duration>
        <type>half</type>
      </note>
      <note>
        <pitch>
          <step>A</step>
          <alter>0.0</alter>
          <octave>4</octave>
        </pitch>
        <duration>2.0</duration>
        <type>half</type>
      </note>
    </measure>
    <measure number="38">
      <note>
        <pitch>
          <step>A</step>
          <alter>0.0</alter>
          <octave>4</octave>
        </pitch>
        <duration>2.0</duration>
        <type>half</type>
      </note>
      <note>
        <pitch>
          <step>B</step>
          <alter>0.0</alter>
          <octave>4</octave>
        </pitch>
        <duration>2.0</duration>
        <type>half</type>
      </note>
    </measure>
    <measure number="39">
      <note>
        <pitch>
          <step>C</step>
          <alter>0.0</alter>
          <octave>5</octave>
        </pitch>
        <duration>2.0</duration>
        <type>half</type>
      </note>
      <note>
        <pitch>
          <step>D</step>
          <alter>0.0</alter>
          <octave>5</octave>
        </pitch>
        <duration>2.0</duration>
        <type>half</type>
      </note>
    </measure>
    <measure number="40">
      <note>
        <pitch>
          <step>E</step>
          <alter>0.0</alter>
          <octave>5</octave>
        </pitch>
        <duration>1.0</duration>
        <type>quarter</type>
      </note>
      <note>
        <pitch>
          <step>D</step>
          <alter>0.0</alter>
          <octave>5</octave>
        </pitch>
        <duration>1.0</duration>
        <type>quarter</type>
      </note>
      <note>
        <pitch>
          <step>D</step>
          <alter>0.0</alter>
          <octave>5</octave>
        </pitch>
        <duration>2.0</duration>
        <type>half</type>
      </note>
    </measure>
    <measure number="41">
      <note>
        <pitch>
          <step>C</step>
          <alter>0.0</alter>
          <octave>5</octave>
        </pitch>
        <duration>2.0</duration>
        <type>half</type>
      </note>
      <note>
        <rest/>
        <duration>2.0</duration>
        <type>half</type>
      </note>
    </measure>
    <measure number="42">
      <note>
        <pitch>
          <step>A</step>
          <alter>0.0</alter>
          <octave>4</octave>
        </pitch>
        <duration>2.0</duration>
        <type>half</type>
      </note>
      <note>
        <pitch>
          <step>F</step>
          <alter>0.0</alter>
          <octave>4</octave>
        </pitch>
        <duration>1.0</duration>
        <type>quarter</type>
      </note>
      <note>
        <pitch>
          <step>A</step>
          <alter>0.0</alter>
          <octave>4</octave>
        </pitch>
        <duration>1.0</duration>
        <type>quarter</type>
      </note>
    </measure>
    <measure number="43">
      <note>
        <pitch>
          <step>B</step>
          <alter>0.0</alter>
          <octave>4</octave>
        </pitch>
        <duration>2.0</duration>
        <type>half</type>
      </note>
      <note>
        <pitch>
          <step>C</step>
          <alter>0.0</alter>
          <octave>5</octave>
        </pitch>
        <duration>2.0</duration>
        <type>half</type>
      </note>
    </measure>
    <measure number="44">
      <note>
        <pitch>
          <step>F</step>
          <alter>0.0</alter>
          <octave>4</octave>
        </pitch>
        <duration>1.0</duration>
        <type>quarter</type>
      </note>
      <note>
        <pitch>
          <step>E</step>
          <alter>0.0</alter>
          <octave>5</octave>
        </pitch>
        <duration>1.0</duration>
        <type>quarter</type>
      </note>
      <note>
        <rest/>
        <duration>2.0</duration>
        <type>half</type>
      </note>
    </measure>
    <measure number="45">
      <note>
        <pitch>
          <step>E</step>
          <alter>0.0</alter>
          <octave>5</octave>
        </pitch>
        <duration>2.0</duration>
        <type>half</type>
      </note>
      <note>
        <rest/>
        <duration>2.0</duration>
        <type>half</type>
      </note>
    </measure>
    <measure number="46">
      <note>
        <pitch>
          <step>F</step>
          <alter>0.0</alter>
          <octave>5</octave>
        </pitch>
        <duration>2.0</duration>
        <type>half</type>
      </note>
      <note>
        <pitch>
          <step>F</step>
          <alter>0.0</alter>
          <octave>4</octave>
        </pitch>
        <duration>1.0</duration>
        <type>quarter</type>
      </note>
      <note>
        <pitch>
          <step>E</step>
          <alter>0.0</alter>
          <octave>5</octave>
        </pitch>
        <duration>1.0</duration>
        <type>quarter</type>
      </note>
    </measure>
    <measure number="47">
      <note>
        <pitch>
          <step>D</step>
          <alter>0.0</alter>
          <octave>5</octave>
        </pitch>
        <duration>2.0</duration>
        <type>half</type>
      </note>
      <note>
        <pitch>
          <step>B</step>
          <alter>0.0</alter>
          <octave>4</octave>
        </pitch>
        <duration>2.0</duration>
        <type>half</type>
      </note>
    </measure>
    <measure number="48">
      <note>
        <pitch>
          <step>C</step>
          <alter>0.0</alter>
          <octave>5</octave>
        </pitch>
        <duration>2.0</duration>
        <type>half</type>
      </note>
      <note>
        <pitch>
          <step>A</step>
          <alter>0.0</alter>
          <octave>4</octave>
        </pitch>
        <duration>1.0</duration>
        <type>quarter</type>
      </note>
      <note>
        <pitch>
          <step>D</step>
          <alter>0.0</alter>
          <octave>5</octave>
        </pitch>
        <duration>1.0</duration>
        <type>quarter</type>
      </note>
    </measure>
    <measure number="49">
      <note>
        <pitch>
          <step>E</step>
          <alter>0.0</alter>
          <octave>5</octave>
        </pitch>
        <duration>2.0</duration>
        <type>half</type>
      </note>
      <note>
        <pitch>
          <step>E</step>
          <alter>0.0</alter>
          <octave>5</octave>
        </pitch>
        <duration>2.0</duration>
        <type>half</type>
      </note>
    </measure>
    <measure number="50">
      <note>
        <pitch>
          <step>F</step>
          <alter>0.0</alter>
          <octave>4</octave>
        </pitch>
        <duration>1.0</duration>
        <type>quarter</type>
      </note>
      <note>
        <pitch>
          <step>F</step>
          <alter>0.0</alter>
          <octave>5</octave>
        </pitch>
        <duration>1.0</duration>
        <type>quarter</type>
      </note>
      <note>
        <pitch>
          <step>F</step>
          <alter>0.0</alter>
          <octave>5</octave>
        </pitch>
        <duration>2.0</duration>
        <type>half</type>
      </note>
    </measure>
    <measure number="51">
      <note>
        <pitch>
          <step>D</step>
          <alter>0.0</alter>
          <octave>5</octave>
        </pitch>
        <duration>2.0</duration>
        <type>half</type>
      </note>
      <note>
        <pitch>
          <step>C</step>
          <alter>0.0</alter>
          <octave>5</octave>
        </pitch>
        <duration>2.0</duration>
        <type>half</type>
      </note>
    </measure>
    <measure number="52">
      <note>
        <pitch>
          <step>C</step>
          <alter>0.0</alter>
          <octave>5</octave>
        </pitch>
        <duration>2.0</duration>
        <type>half</type>
      </note>
      <note>
        <pitch>
          <step>B</step>
          <alter>0.0</alter>
          <octave>4</octave>
        </pitch>
        <duration>1.0</duration>
        <type>quarter</type>
      </note>
      <note>
        <pitch>
          <step>B</step>
          <alter>0.0</alter>
          <octave>4</octave>
        </pitch>
        <duration>1.0</duration>
        <type>quarter</type>
      </note>
    </measure>
    <measure number="53">
      <note>
        <pitch>
          <step>C</step>
          <alter>0.0</alter>
          <octave>5</octave>
        </pitch>
        <duration>1.0</duration>
        <type>quarter</type>
      </note>
      <note>
        <pitch>
          <step>A</step>
          <alter>0.0</alter>
          <octave>4</octave>
        </pitch>
        <duration>1.0</duration>
        <type>quarter</type>
      </note>
      <note>
        <rest/>
        <duration>2.0</duration>
        <type>half</type>
      </note>
    </measure>
    <measure number="54">
      <note>
        <pitch>
          <step>A</step>
          <alter>0.0</alter>
          <octave>4</octave>
        </pitch>
        <duration>2.0</duration>
        <type>half</type>
      </note>
      <note>
        <pitch>
          <step>G</step>
          <alter>0.0</alter>
          <octave>4</octave>
        </pitch>
        <duration>2.0</duration>
        <type>half</type>
      </note>
    </measure>
    <measure number="55">
      <note>
        <pitch>
          <step>A</step>
          <alter>0.0</alter>
          <octave>4</octave>
        </pitch>
        <duration>2.0</duration>
        <type>half</type>
      </note>
      <note>
        <pitch>
          <step>A</step>
          <alter>0.0</alter>
          <octave>4</octave>
        </pitch>
        <duration>2.0</duration>
        <type>half</type>
      </note>
    </measure>
    <measure number="56">
      <note>
        <pitch>
          <step>G</step>
          <alter>0.0</alter>
          <octave>4</octave>
        </pitch>
        <duration>1.0</duration>
        <type>quarter</type>
      </note>
      <note>
        <pitch>
          <step>B</step>
          <alter>0.0</alter>
          <octave>4</octave>
        </pitch>
        <duration>1.0</duration>
        <type>quarter</type>
      </note>
      <note>
        <pitch>
          <step>C</step>
          <alter>0.0</alter>
          <octave>5</octave>
        </pitch>
        <duration>1.0</duration>
        <type>quarter</type>
      </note>
      <note>
        <rest/>
        <duration>1.0</duration>
        <type>quarter</type>
      </note>
    </measure>
    <measure number="57">
      <note>
        <pitch>
          <step>B</step>
          <alter>0.0</alter>
          <octave>4</octave>
        </pitch>
        <duration>2.0</duration>
        <type>half</type>
      </note>
      <note>
        <pitch>
          <step>G</step>
          <alter>0.0</alter>
          <octave>4</octave>
        </pitch>
        <duration>2.0</duration>
        <type>half</type>
      </note>
    </measure>
    <measure number="58">
      <note>
        <pitch>
          <step>C</step>
          <alter>0.0</alter>
          <octave>5</octave>
        </pitch>
        <duration>1.0</duration>
        <type>quarter</type>
      </note>
      <note>
        <pitch>
          <step>G</step>
          <alter>0.0</alter>
          <octave>4</octave>
        </pitch>
        <duration>1.0</duration>
        <type>quarter</type>
      </note>
      <note>
        <pitch>
          <step>A</step>
          <alter>0.0</alter>
          <octave>4</octave>
        </pitch>
        <duration>2.0</duration>
        <type>half</type>
      </note>
    </measure>
    <measure number="59">
      <note>
        <pitch>
          <step>B</step>
          <alter>0.0</alter>
          <octave>4</octave>
        </pitch>
        <duration>2.0</duration>
        <type>half</type>
      </note>
      <note>
        <pitch>
          <step>C</step>
          <alter>0.0</alter>
          <octave>5</octave>
        </pitch>
        <duration>1.0</duration>
        <type>quarter</type>
      </note>
      <note>
        <rest/>
        <duration>1.0</duration>
        <type>quarter</type>
      </note>
    </measure>
    <measure number="60">
      <note>
        <pitch>
          <step>C</step>
          <alter>0.0</alter>
          <octave>5</octave>
        </pitch>
        <duration>2.0</duration>
        <type>half</type>
      </note>
      <note>
        <pitch>
          <step>B</step>
          <alter>0.0</alter>
          <octave>4</octave>
        </pitch>
        <duration>2.0</duration>
        <type>half</type>
      </note>
    </measure>
    <measure number="61">
      <note>
        <pitch>
          <step>A</step>
          <alter>0.0</alter>
          <octave>4</octave>
        </pitch>
        <duration>2.0</duration>
        <type>half</type>
      </note>
      <note>
        <pitch>
          <step>G</step>
          <alter>0.0</alter>
          <octave>4</octave>
        </pitch>
        <duration>2.0</duration>
        <type>half</type>
      </note>
    </measure>
    <measure number="62">
      <note>
        <pitch>
          <step>A</step>
          <alter>0.0</alter>
          <octave>4</octave>
        </pitch>
        <duration>2.0</duration>
        <type>half</type>
      </note>
      <note>
        <pitch>
          <step>B</step>
          <alter>0.0</alter>
          <octave>4</octave>
        </pitch>
        <duration>2.0</duration>
        <type>half</type>
      </note>
    </measure>
    <measure number="63">
      <note>
        <pitch>
          <step>C</step>
          <alter>0.0</alter>
          <octave>5</octave>
        </pitch>
        <duration>2.0</duration>
        <type>half</type>
      </note>
      <note>
        <rest/>
        <duration>2.0</duration>
        <type>half</type>
      </note>
    </measure>
    <measure number="64">
      <note>
        <pitch>
          <step>C</step>
          <alter>0.0</alter>
          <octave>5</octave>
        </pitch>
        <duration>2.0</duration>
        <type>half</type>
      </note>
      <note>
        <pitch>
          <step>B</step>
          <alter>0.0</alter>
          <octave>4</octave>
        </pitch>
        <duration>2.0</duration>
        <type>half</type>
      </note>
    </measure>
    <measure number="65">
      <note>
        <pitch>
          <step>A</step>
          <alter>0.0</alter>
          <octave>4</octave>
        </pitch>
        <duration>2.0</duration>
        <type>half</type>
      </note>
      <note>
        <pitch>
          <step>A</step>
          <alter>0.0</alter>
          <octave>4</octave>
        </pitch>
        <duration>1.0</duration>
        <type>quarter</type>
      </note>
      <note>
        <pitch>
          <step>G</step>
          <alter>0.0</alter>
          <octave>4</octave>
        </pitch>
        <duration>1.0</duration>
        <type>quarter</type>
      </note>
    </measure>
    <measure number="66">
      <note>
        <pitch>
          <step>G</step>
          <alter>0.0</alter>
          <octave>4</octave>
        </pitch>
        <duration>1.0</duration>
        <type>quarter</type>
      </note>
      <note>
        <pitch>
          <step>G</step>
          <alter>0.0</alter>
          <octave>4</octave>
        </pitch>
        <duration>1.0</duration>
        <type>quarter</type>
      </note>
      <note>
        <pitch>
          <step>A</step>
          <alter>0.0</alter>
          <octave>4</octave>
        </pitch>
        <duration>2.0</duration>
        <type>half</type>
      </note>
    </measure>
    <measure number="67">
      <note>
        <pitch>
          <step>G</step>
          <alter>0.0</alter>
          <octave>4</octave>
        </pitch>
        <duration>1.0</duration>
        <type>quarter</type>
      </note>
      <note>
        <pitch>
          <step>B</step>
          <alter>0.0</alter>
          <octave>4</octave>
        </pitch>
        <duration>1.0</duration>
        <type>quarter</type>
      </note>
      <note>
        <pitch>
          <step>G</step>
          <alter>0.0</alter>
          <octave>4</octave>
        </pitch>
        <duration>1.0</duration>
        <type>quarter</type>
      </note>
      <note>
        <pitch>
          <step>C</step>
          <alter>0.0</alter>
          <octave>5</octave>
        </pitch>
        <duration>1.0</duration>
        <type>quarter</type>
      </note>
    </measure>
    <measure number="68">
      <note>
        <pitch>
          <step>C</step>
          <alter>0.0</alter>
          <octave>5</octave>
        </pitch>
        <duration>2.0</duration>
        <type>half</type>
      </note>
      <note>
        <pitch>
          <step>F</step>
          <alter>0.0</alter>
          <octave>4</octave>
        </pitch>
        <duration>1.0</duration>
        <type>quarter</type>
      </note>
      <note>
        <pitch>
          <step>B</step>
          <alter>0.0</alter>
          <octave>4</octave>
        </pitch>
        <duration>1.0</duration>
        <type>quarter</type>
      </note>
    </measure>
    <measure number="69">
      <note>
        <pitch>
          <step>A</step>
          <alter>0.0</alter>
          <octave>4</octave>
        </pitch>
        <duration>2.0</duration>
        <type>half</type>
      </note>
      <note>
        <pitch>
          <step>F</step>
          <alter>0.0</alter>
          <octave>4</octave>
        </pitch>
        <duration>1.0</duration>
        <type>quarter</type>
      </note>
      <note>
        <pitch>
          <step>G</step>
          <alter>0.0</alter>
          <octave>4</octave>
        </pitch>
        <duration>1.0</duration>
        <type>quarter</type>
      </note>
    </measure>
    <measure number="70">
      <note>
        <pitch>
          <step>F</step>
          <alter>0.0</alter>
          <octave>4</octave>
        </pitch>
        <duration>1.0</duration>
        <type>quarter</type>
      </note>
      <note>
        <pitch>
          <step>G</step>
          <alter>0.0</alter>
          <octave>4</octave>
        </pitch>
        <duration>1.0</duration>
        <type>quarter</type>
      </note>
      <note>
        <pitch>
          <step>G</step>
          <alter>0.0</alter>
          <octave>4</octave>
        </pitch>
        <duration>2.0</duration>
        <type>half</type>
      </note>
    </measure>
    <measure number="71">
      <note>
        <pitch>
          <step>A</step>
          <alter>0.0</alter>
          <octave>4</octave>
        </pitch>
        <duration>2.0</duration>
        <type>half</type>
      </note>
      <note>
        <pitch>
          <step>G</step>
          <alter>0.0</alter>
          <octave>4</octave>
        </pitch>
        <duration>1.0</duration>
        <type>quarter</type>
      </note>
      <note>
        <pitch>
          <step>B</step>
          <alter>0.0</alter>
          <octave>4</octave>
        </pitch>
        <duration>1.0</duration>
        <type>quarter</type>
      </note>
    </measure>
    <measure number="72">
      <note>
        <pitch>
          <step>C</step>
          <alter>0.0</alter>
          <octave>5</octave>
        </pitch>
        <duration>2.0</duration>
        <type>half</type>
      </note>
      <note>
        <pitch>
          <step>G</step>
          <alter>0.0</alter>
          <octave>4</octave>
        </pitch>
        <duration>1.0</duration>
        <type>quarter</type>
      </note>
      <note>
        <pitch>
          <step>C</step>
          <alter>0.0</alter>
          <octave>5</octave>
        </pitch>
        <duration>1.0</duration>
        <type>quarter</type>
      </note>
    </measure>
    <measure number="73">
      <note>
        <pitch>
          <step>A</step>
          <alter>0.0</alter>
          <octave>4</octave>
        </pitch>
        <duration>1.0</duration>
        <type>quarter</type>
      </note>
      <note>
        <pitch>
          <step>C</step>
          <alter>0.0</alter>
          <octave>5</octave>
        </pitch>
        <duration>1.0</duration>
        <type>quarter</type>
      </note>
      <note>
        <pitch>
          <step>A</step>
          <alter>0.0</alter>
          <octave>4</octave>
        </pitch>
        <duration>1.0</duration>
        <type>quarter</type>
      </note>
      <note>
        <pitch>
          <step>B</step>
          <alter>0.0</alter>
          <octave>4</octave>
        </pitch>
        <duration>1.0</duration>
        <type>quarter</type>
      </note>
    </measure>
    <measure number="74">
      <note>
        <pitch>
          <step>A</step>
          <alter>0.0</alter>
          <octave>4</octave>
        </pitch>
        <duration>2.0</duration>
        <type>half</type>
      </note>
      <note>
        <pitch>
          <step>C</step>
          <alter>0.0</alter>
          <octave>5</octave>
        </pitch>
        <duration>1.0</duration>
        <type>quarter</type>
      </note>
      <note>
        <pitch>
          <step>A</step>
          <alter>0.0</alter>
          <octave>4</octave>
        </pitch>
        <duration>1.0</duration>
        <type>quarter</type>
      </note>
    </measure>
    <measure number="75">
      <note>
        <pitch>
          <step>G</step>
          <alter>0.0</alter>
          <octave>4</octave>
        </pitch>
        <duration>2.0</duration>
        <type>half</type>
      </note>
      <note>
        <pitch>
          <step>A</step>
          <alter>0.0</alter>
          <octave>4</octave>
        </pitch>
        <duration>2.0</duration>
        <type>half</type>
      </note>
    </measure>
    <measure number="76">
      <note>
        <pitch>
          <step>B</step>
          <alter>0.0</alter>
          <octave>4</octave>
        </pitch>
        <duration>1.0</duration>
        <type>quarter</type>
      </note>
      <note>
        <pitch>
          <step>B</step>
          <alter>0.0</alter>
          <octave>4</octave>
        </pitch>
        <duration>1.0</duration>
        <type>quarter</type>
      </note>
      <note>
        <pitch>
          <step>C</step>
          <alter>0.0</alter>
          <octave>5</octave>
        </pitch>
        <duration>2.0</duration>
        <type>half</type>
      </note>
    </measure>
    <measure number="77">
      <note>
        <pitch>
          <step>C</step>
          <alter>0.0</alter>
          <octave>5</octave>
        </pitch>
        <duration>2.0</duration>
        <type>half</type>
      </note>
      <note>
        <rest/>
        <duration>2.0</duration>
        <type>half</type>
      </note>
    </measure>
    <measure number="78">
      <note>
        <pitch>
          <step>A</step>
          <alter>0.0</alter>
          <octave>4</octave>
        </pitch>
        <duration>2.0</duration>
        <type>half</type>
      </note>
      <note>
        <pitch>
          <step>A</step>
          <alter>0.0</alter>
          <octave>4</octave>
        </pitch>
        <duration>2.0</duration>
        <type>half</type>
      </note>
    </measure>
    <measure number="79">
      <note>
        <pitch>
          <step>B</step>
          <alter>0.0</alter>
          <octave>4</octave>
        </pitch>
        <duration>1.0</duration>
        <type>quarter</type>
      </note>
      <note>
        <pitch>
          <step>A</step>
          <alter>0.0</alter>
          <octave>4</octave>
        </pitch>
        <duration>1.0</duration>
        <type>quarter</type>
      </note>
      <note>
        <pitch>
          <step>B</step>
          <alter>0.0</alter>
          <octave>4</octave>
        </pitch>
        <duration>2.0</duration>
        <type>half</type>
      </note>
    </measure>
    <measure number="80">
      <note>
        <pitch>
          <step>A</step>
          <alter>0.0</alter>
          <octave>4</octave>
        </pitch>
        <duration>1.0</duration>
        <type>quarter</type>
      </note>
      <note>
        <pitch>
          <step>B</step>
          <alter>0.0</alter>
          <octave>4</octave>
        </pitch>
        <duration>1.0</duration>
        <type>quarter</type>
      </note>
      <note>
        <pitch>
          <step>C</step>
          <alter>0.0</alter>
          <octave>5</octave>
        </pitch>
        <duration>2.0</duration>
        <type>half</type>
      </note>
    </measure>
    <measure number="81">
      <note>
        <pitch>
          <step>A</step>
          <alter>0.0</alter>
          <octave>4</octave>
        </pitch>
        <duration>1.0</duration>
        <type>quarter</type>
      </note>
      <note>
        <pitch>
          <step>B</step>
          <alter>0.0</alter>
          <octave>4</octave>
        </pitch>
        <duration>1.0</duration>
        <type>quarter</type>
      </note>
      <note>
        <pitch>
          <step>B</step>
          <alter>0.0</alter>
          <octave>4</octave>
        </pitch>
        <duration>2.0</duration>
        <type>half</type>
      </note>
    </measure>
    <measure number="82">
      <note>
        <pitch>
          <step>A</step>
          <alter>0.0</alter>
          <octave>4</octave>
        </pitch>
        <duration>2.0</duration>
        <type>half</type>
      </note>
      <note>
        <pitch>
          <step>E</step>
          <alter>0.0</alter>
          <octave>5</octave>
        </pitch>
        <duration>1.0</duration>
        <type>quarter</type>
      </note>
      <note>
        <pitch>
          <step>G</step>
          <alter>0.0</alter>
          <octave>4</octave>
        </pitch>
        <duration>1.0</duration>
        <type>quarter</type>
      </note>
    </measure>
    <measure number="83">
      <note>
        <pitch>
          <step>G</step>
          <alter>0.0</alter>
          <octave>4</octave>
        </pitch>
        <duration>2.0</duration>
        <type>half</type>
      </note>
      <note>
        <pitch>
          <step>G</step>
          <alter>0.0</alter>
          <octave>4</octave>
        </pitch>
        <duration>1.0</duration>
        <type>quarter</type>
      </note>
      <note>
        <rest/>
        <duration>1.0</duration>
        <type>quarter</type>
      </note>
    </measure>
    <measure number="84">
      <note>
        <pitch>
          <step>A</step>
          <alter>0.0</alter>
          <octave>4</octave>
        </pitch>
        <duration>1.0</duration>
        <type>quarter</type>
      </note>
      <note>
        <pitch>
          <step>B</step>
          <alter>0.0</alter>
          <octave>4</octave>
        </pitch>
        <duration>2.0</duration>
        <type>half</type>
      </note>
      <note>
        <rest/>
        <duration>1.0</duration>
        <type>quarter</type>
      </note>
    </measure>
    <measure number="85">
      <note>
        <pitch>
          <step>B</step>
          <alter>0.0</alter>
          <octave>4</octave>
        </pitch>
        <duration>1.0</duration>
        <type>quarter</type>
      </note>
      <note>
        <pitch>
          <step>B</step>
          <alter>0.0</alter>
          <octave>4</octave>
        </pitch>
        <duration>1.0</duration>
        <type>quarter</type>
      </note>
      <note>
        <pitch>
          <step>C</step>
          <alter>0.0</alter>
          <octave>5</octave>
        </pitch>
        <duration>2.0</duration>
        <type>half</type>
      </note>
    </measure>
    <measure number="86">
      <note>
        <pitch>
          <step>C</step>
          <alter>0.0</alter>
          <octave>5</octave>
        </pitch>
        <duration>2.0</duration>
        <type>half</type>
      </note>
      <note>
        <pitch>
          <step>B</step>
          <alter>0.0</alter>
          <octave>4</octave>
        </pitch>
        <duration>2.0</duration>
        <type>half</type>
      </note>
    </measure>
    <measure number="87">
      <note>
        <pitch>
          <step>A</step>
          <alter>0.0</alter>
          <octave>4</octave>
        </pitch>
        <duration>2.0</duration>
        <type>half</type>
      </note>
      <note>
        <pitch>
          <step>B</step>
          <alter>0.0</alter>
          <octave>4</octave>
        </pitch>
        <duration>1.0</duration>
        <type>quarter</type>
      </note>
      <note>
        <pitch>
          <step>G</step>
          <alter>0.0</alter>
          <octave>4</octave>
        </pitch>
        <duration>1.0</duration>
        <type>quarter</type>
      </note>
    </measure>
    <measure number="88">
      <note>
        <pitch>
          <step>B</step>
          <alter>0.0</alter>
          <octave>4</octave>
        </pitch>
        <duration>1.0</duration>
        <type>quarter</type>
      </note>
      <note>
        <pitch>
          <step>G</step>
          <alter>0.0</alter>
          <octave>4</octave>
        </pitch>
        <duration>1.0</duration>
        <type>quarter</type>
      </note>
      <note>
        <pitch>
          <step>G</step>
          <alter>0.0</alter>
          <octave>4</octave>
        </pitch>
        <duration>2.0</duration>
        <type>half</type>
      </note>
    </measure>
    <measure number="89">
      <note>
        <pitch>
          <step>A</step>
          <alter>0.0</alter>
          <octave>4</octave>
        </pitch>
        <duration>1.0</duration>
        <type>quarter</type>
      </note>
      <note>
        <pitch>
          <step>B</step>
          <alter>0.0</alter>
          <octave>4</octave>
        </pitch>
        <duration>1.0</duration>
        <type>quarter</type>
      </note>
      <note>
        <pitch>
          <step>B</step>
          <alter>0.0</alter>
          <octave>4</octave>
        </pitch>
        <duration>1.0</duration>
        <type>quarter</type>
      </note>
      <note>
        <rest/>
        <duration>1.0</duration>
        <type>quarter</type>
      </note>
    </measure>
    <measure number="90">
      <note>
        <pitch>
          <step>B</step>
          <alter>0.0</alter>
          <octave>4</octave>
        </pitch>
        <duration>2.0</duration>
        <type>half</type>
      </note>
      <note>
        <pitch>
          <step>B</step>
          <alter>0.0</alter>
          <octave>4</octave>
        </pitch>
        <duration>2.0</duration>
        <type>half</type>
      </note>
    </measure>
    <measure number="91">
      <note>
        <pitch>
          <step>B</step>
          <alter>0.0</alter>
          <octave>4</octave>
        </pitch>
        <duration>1.0</duration>
        <type>quarter</type>
      </note>
      <note>
        <pitch>
          <step>D</step>
          <alter>0.0</alter>
          <octave>4</octave>
        </pitch>
        <duration>1.0</duration>
        <type>quarter</type>
      </note>
      <note>
        <pitch>
          <step>E</step>
          <alter>0.0</alter>
          <octave>4</octave>
        </pitch>
        <duration>2.0</duration>
        <type>half</type>
      </note>
    </measure>
    <measure number="92">
      <note>
        <pitch>
          <step>F</step>
          <alter>0.0</alter>
          <octave>4</octave>
        </pitch>
        <duration>2.0</duration>
        <type>half</type>
      </note>
      <note>
        <pitch>
          <step>G</step>
          <alter>0.0</alter>
          <octave>4</octave>
        </pitch>
        <duration>2.0</duration>
        <type>half</type>
      </note>
    </measure>
    <measure number="93">
      <note>
        <pitch>
          <step>B</step>
          <alter>0.0</alter>
          <octave>4</octave>
        </pitch>
        <duration>1.0</duration>
        <type>quarter</type>
      </note>
      <note>
        <pitch>
          <step>G</step>
          <alter>0.0</alter>
          <octave>4</octave>
        </pitch>
        <duration>1.0</duration>
        <type>quarter</type>
      </note>
      <note>
        <pitch>
          <step>A</step>
          <alter>0.0</alter>
          <octave>4</octave>
        </pitch>
        <duration>1.0</duration>
        <type>quarter</type>
      </note>
      <note>
        <rest/>
        <duration>1.0</duration>
        <type>quarter</type>
      </note>
    </measure>
    <measure number="94">
      <note>
        <pitch>
          <step>A</step>
          <alter>0.0</alter>
          <octave>4</octave>
        </pitch>
        <duration>2.0</duration>
        <type>half</type>
      </note>
      <note>
        <pitch>
          <step>B</step>
          <alter>0.0</alter>
          <octave>4</octave>
        </pitch>
        <duration>1.0</duration>
        <type>quarter</type>
      </note>
      <note>
        <pitch>
          <step>G</step>
          <alter>0.0</alter>
          <octave>4</octave>
        </pitch>
        <duration>1.0</duration>
        <type>quarter</type>
      </note>
    </measure>
    <measure number="95">
      <note>
        <pitch>
          <step>F</step>
          <alter>0.0</alter>
          <octave>4</octave>
        </pitch>
        <duration>2.0</duration>
        <type>half</type>
      </note>
      <note>
        <pitch>
          <step>F</step>
          <alter>0.0</alter>
          <octave>4</octave>
        </pitch>
        <duration>2.0</duration>
        <type>half</type>
      </note>
    </measure>
    <measure number="96">
      <note>
        <pitch>
          <step>F</step>
          <alter>0.0</alter>
          <octave>4</octave>
        </pitch>
        <duration>2.0</duration>
        <type>half</type>
      </note>
      <note>
        <pitch>
          <step>F</step>
          <alter>0.0</alter>
          <octave>4</octave>
        </pitch>
        <duration>1.0</duration>
        <type>quarter</type>
      </note>
      <note>
        <pitch>
          <step>G</step>
          <alter>0.0</alter>
          <octave>4</octave>
        </pitch>
        <duration>1.0</duration>
        <type>quarter</type>
      </note>
    </measure>
    <measure number="97">
      <note>
        <pitch>
          <step>G</step>
          <alter>0.0</alter>
          <octave>4</octave>
        </pitch>
        <duration>2.0</duration>
        <type>half</type>
      </note>
      <note>
        <pitch>
          <step>G</step>
          <alter>0.0</alter>
          <octave>4</octave>
        </pitch>
        <duration>1.0</duration>
        <type>quarter</type>
      </note>
      <note>
        <rest/>
        <duration>1.0</duration>
        <type>quarter</type>
      </note>
    </measure>
    <measure number="98">
      <note>
        <pitch>
          <step>G</step>
          <alter>0.0</alter>
          <octave>4</octave>
        </pitch>
        <duration>2.0</duration>
        <type>half</type>
      </note>
      <note>
        <pitch>
          <step>A</step>
          <alter>0.0</alter>
          <octave>4</octave>
        </pitch>
        <duration>2.0</duration>
        <type>half</type>
      </note>
    </measure>
    <measure number="99">
      <note>
        <pitch>
          <step>G</step>
          <alter>0.0</alter>
          <octave>4</octave>
        </pitch>
        <duration>1.0</duration>
        <type>quarter</type>
      </note>
      <note>
        <pitch>
          <step>A</step>
          <alter>0.0</alter>
          <octave>4</octave>
        </pitch>
        <duration>1.0</duration>
        <type>quarter</type>
      </note>
      <note>
        <pitch>
          <step>A</step>
          <alter>0.0</alter>
          <octave>4</octave>
        </pitch>
        <duration>2.0</duration>
        <type>half</type>
      </note>
    </measure>
    <measure number="100">
      <note>
        <pitch>
          <step>B</step>
          <alter>0.0</alter>
          <octave>4</octave>
        </pitch>
        <duration>2.0</duration>
        <type>half</type>
      </note>
      <note>
        <pitch>
          <step>A</step>
          <alter>0.0</alter>
          <octave>4</octave>
        </pitch>
        <duration>1.0</duration>
        <type>quarter</type>
      </note>
      <note>
        <pitch>
          <step>B</step>
          <alter>0.0</alter>
          <octave>4</octave>
        </pitch>
        <duration>1.0</duration>
        <type>quarter</type>
      </note>
    </measure>
    <measure number="101">
      <note>
        <pitch>
          <step>C</step>
          <alter>0.0</alter>
          <octave>5</octave>
        </pitch>
        <duration>2.0</duration>
        <type>half</type>
      </note>
      <note>
        <pitch>
          <step>C</step>
          <alter>0.0</alter>
          <octave>5</octave>
        </pitch>
        <duration>1.0</duration>
        <type>quarter</type>
      </note>
      <note>
        <pitch>
          <step>C</step>
          <alter>0.0</alter>
          <octave>5</octave>
        </pitch>
        <duration>1.0</duration>
        <type>quarter</type>
      </note>
    </measure>
    <measure number="102">
      <note>
        <pitch>
          <step>C</step>
          <alter>0.0</alter>
          <octave>5</octave>
        </pitch>
        <duration>2.0</duration>
        <type>half</type>
      </note>
      <note>
        <pitch>
          <step>C</step>
          <alter>0.0</alter>
          <octave>5</octave>
        </pitch>
        <duration>2.0</duration>
        <type>half</type>
      </note>
    </measure>
    <measure number="103">
      <note>
        <pitch>
          <step>C</step>
          <alter>0.0</alter>
          <octave>5</octave>
        </pitch>
        <duration>1.0</duration>
        <type>quarter</type>
      </note>
      <note>
        <pitch>
          <step>B</step>
          <alter>0.0</alter>
          <octave>4</octave>
        </pitch>
        <duration>1.0</duration>
        <type>quarter</type>
      </note>
      <note>
        <pitch>
          <step>B</step>
          <alter>0.0</alter>
          <octave>4</octave>
        </pitch>
        <duration>2.0</duration>
        <type>half</type>
      </note>
    </measure>
    <measure number="104">
      <note>
        <pitch>
          <step>A</step>
          <alter>0.0</alter>
          <octave>4</octave>
        </pitch>
        <duration>2.0</duration>
        <type>half</type>
      </note>
      <note>
        <pitch>
          <step>B</step>
          <alter>0.0</alter>
          <octave>4</octave>
        </pitch>
        <duration>2.0</duration>
        <type>half</type>
      </note>
    </measure>
    <measure number="105">
      <note>
        <pitch>
          <step>C</step>
          <alter>0.0</alter>
          <octave>5</octave>
        </pitch>
        <duration>2.0</duration>
        <type>half</type>
      </note>
      <note>
        <pitch>
          <step>D</step>
          <alter>0.0</alter>
          <octave>5</octave>
        </pitch>
        <duration>1.0</duration>
        <type>quarter</type>
      </note>
      <note>
        <pitch>
          <step>C</step>
          <alter>0.0</alter>
          <octave>5</octave>
        </pitch>
        <duration>1.0</duration>
        <type>quarter</type>
      </note>
    </measure>
    <measure number="106">
      <note>
        <pitch>
          <step>C</step>
          <alter>0.0</alter>
          <octave>5</octave>
        </pitch>
        <duration>2.0</duration>
        <type>half</type>
      </note>
      <note>
        <pitch>
          <step>B</step>
          <alter>0.0</alter>
          <octave>4</octave>
        </pitch>
        <duration>1.0</duration>
        <type>quarter</type>
      </note>
      <note>
        <pitch>
          <step>G</step>
          <alter>0.0</alter>
          <octave>4</octave>
        </pitch>
        <duration>1.0</duration>
        <type>quarter</type>
      </note>
    </measure>
    <measure number="107">
      <note>
        <pitch>
          <step>B</step>
          <alter>0.0</alter>
          <octave>4</octave>
        </pitch>
        <duration>2.0</duration>
        <type>half</type>
      </note>
      <note>
        <pitch>
          <step>G</step>
          <alter>0.0</alter>
          <octave>4</octave>
        </pitch>
        <duration>1.0</duration>
        <type>quarter</type>
      </note>
      <note>
        <pitch>
          <step>C</step>
          <alter>0.0</alter>
          <octave>5</octave>
        </pitch>
        <duration>1.0</duration>
        <type>quarter</type>
      </note>
    </measure>
    <measure number="108">
      <note>
        <pitch>
          <step>C</step>
          <alter>0.0</alter>
          <octave>5</octave>
        </pitch>
        <duration>1.0</duration>
        <type>quarter</type>
      </note>
      <note>
        <pitch>
          <step>B</step>
          <alter>0.0</alter>
          <octave>4</octave>
        </pitch>
        <duration>2.0</duration>
        <type>half</type>
      </note>
      <note>
        <rest/>
        <duration>1.0</duration>
        <type>quarter</type>
      </note>
    </measure>
    <measure number="109">
      <note>
        <pitch>
          <step>A</step>
          <alter>0.0</alter>
          <octave>4</octave>
        </pitch>
        <duration>2.0</duration>
        <type>half</type>
      </note>
      <note>
        <pitch>
          <step>G</step>
          <alter>0.0</alter>
          <octave>4</octave>
        </pitch>
        <duration>2.0</duration>
        <type>half</type>
      </note>
    </measure>
    <measure number="110">
      <note>
        <pitch>
          <step>G</step>
          <alter>0.0</alter>
          <octave>4</octave>
        </pitch>
        <duration>1.0</duration>
        <type>quarter</type>
      </note>
      <note>
        <rest/>
        <duration>3.0</duration>
        <type>half</type>
      </note>
    </measure>
    <measure number="111">
      <note>
        <pitch>
          <step>B</step>
          <alter>0.0</alter>
          <octave>4</octave>
        </pitch>
        <duration>2.0</duration>
        <type>half</type>
      </note>
      <note>
        <pitch>
          <step>C</step>
          <alter>0.0</alter>
          <octave>5</octave>
        </pitch>
        <duration>1.0</duration>
        <type>quarter</type>
      </note>
      <note>
        <pitch>
          <step>A</step>
          <alter>0.0</alter>
          <octave>4</octave>
        </pitch>
        <duration>1.0</duration>
        <type>quarter</type>
      </note>
    </measure>
    <measure number="112">
      <note>
        <pitch>
          <step>A</step>
          <alter>0.0</alter>
          <octave>4</octave>
        </pitch>
        <duration>2.0</duration>
        <type>half</type>
      </note>
      <note>
        <pitch>
          <step>F</step>
          <alter>0.0</alter>
          <octave>4</octave>
        </pitch>
        <duration>2.0</duration>
        <type>half</type>
      </note>
    </measure>
    <measure number="113">
      <note>
        <pitch>
          <step>G</step>
          <alter>0.0</alter>
          <octave>4</octave>
        </pitch>
        <duration>2.0</duration>
        <type>half</type>
      </note>
      <note>
        <pitch>
          <step>C</step>
          <alter>0.0</alter>
          <octave>5</octave>
        </pitch>
        <duration>1.0</duration>
        <type>quarter</type>
      </note>
      <note>
        <pitch>
          <step>A</step>
          <alter>0.0</alter>
          <octave>4</octave>
        </pitch>
        <duration>1.0</duration>
        <type>quarter</type>
      </note>
    </measure>
    <measure number="114">
      <note>
        <pitch>
          <step>A</step>
          <alter>0.0</alter>
          <octave>4</octave>
        </pitch>
        <duration>2.0</duration>
        <type>half</type>
      </note>
      <note>
        <pitch>
          <step>B</step>
          <alter>0.0</alter>
          <octave>4</octave>
        </pitch>
        <duration>2.0</duration>
        <type>half</type>
      </note>
    </measure>
    <measure number="115">
      <note>
        <pitch>
          <step>A</step>
          <alter>0.0</alter>
          <octave>4</octave>
        </pitch>
        <duration>2.0</duration>
        <type>half</type>
      </note>
      <note>
        <pitch>
          <step>C</step>
          <alter>0.0</alter>
          <octave>5</octave>
        </pitch>
        <duration>1.0</duration>
        <type>quarter</type>
      </note>
      <note>
        <pitch>
          <step>G</step>
          <alter>0.0</alter>
          <octave>4</octave>
        </pitch>
        <duration>1.0</duration>
        <type>quarter</type>
      </note>
    </measure>
    <measure number="116">
      <note>
        <pitch>
          <step>G</step>
          <alter>0.0</alter>
          <octave>4</octave>
        </pitch>
        <duration>2.0</duration>
        <type>half</type>
      </note>
      <note>
        <pitch>
          <step>G</step>
          <alter>0.0</alter>
          <octave>4</octave>
        </pitch>
        <duration>2.0</duration>
        <type>half</type>
      </note>
    </measure>
    <measure number="117">
      <note>
        <pitch>
          <step>A</step>
          <alter>0.0</alter>
          <octave>4</octave>
        </pitch>
        <duration>2.0</duration>
        <type>half</type>
      </note>
      <note>
        <pitch>
          <step>C</step>
          <alter>0.0</alter>
          <octave>5</octave>
        </pitch>
        <duration>1.0</duration>
        <type>quarter</type>
      </note>
      <note>
        <pitch>
          <step>A</step>
          <alter>0.0</alter>
          <octave>4</octave>
        </pitch>
        <duration>1.0</duration>
        <type>quarter</type>
      </note>
    </measure>
    <measure number="118">
      <note>
        <pitch>
          <step>A</step>
          <alter>0.0</alter>
          <octave>4</octave>
        </pitch>
        <duration>2.0</duration>
        <type>half</type>
      </note>
      <note>
        <pitch>
          <step>G</step>
          <alter>0.0</alter>
          <octave>4</octave>
        </pitch>
        <duration>2.0</duration>
        <type>half</type>
      </note>
    </measure>
    <measure number="119">
      <note>
        <pitch>
          <step>G</step>
          <alter>0.0</alter>
          <octave>4</octave>
        </pitch>
        <duration>2.0</duration>
        <type>half</type>
      </note>
      <note>
        <pitch>
          <step>A</step>
          <alter>0.0</alter>
          <octave>4</octave>
        </pitch>
        <duration>1.0</duration>
        <type>quarter</type>
      </note>
      <note>
        <pitch>
          <step>F</step>
          <alter>0.0</alter>
          <octave>4</octave>
        </pitch>
        <duration>1.0</duration>
        <type>quarter</type>
      </note>
    </measure>
    <measure number="121">
      <note>
        <pitch>
          <step>F</step>
          <alter>0.0</alter>
          <octave>4</octave>
        </pitch>
        <duration>2.0</duration>
        <type>half</type>
      </note>
      <note>
        <rest/>
        <duration>2.0</duration>
        <type>half</type>
      </note>
    </measure>
    <measure number="122">
      <note>
        <pitch>
          <step>A</step>
          <alter>0.0</alter>
          <octave>4</octave>
        </pitch>
        <duration>2.0</duration>
        <type>half</type>
      </note>
      <note>
        <pitch>
          <step>A</step>
          <alter>0.0</alter>
          <octave>4</octave>
        </pitch>
        <duration>2.0</duration>
        <type>half</type>
      </note>
    </measure>
  </part>
</score-partwise>
